<?xml version="1.0" encoding="UTF-8"?><svg width="24px" height="24px" stroke-width="1.5" viewBox="0 0 24 24" fill="none" xmlns="http://www.w3.org/2000/svg" color="#ffffff"><path d="M12 22c5.523 0 10-4.477 10-10S17.523 2 12 2 2 6.477 2 12s4.477 10 10 10z" stroke="#ffffff" stroke-width="1.5" stroke-linecap="round" stroke-linejoin="round"></path><path d="M7.5 11a.5.5 0 110-1 .5.5 0 010 1zM13 18a1 1 0 110-2 1 1 0 010 2zM11 7.01l.01-.011M8 16.01l.01-.011M16 9.01l.01-.011M17 14.01l.01-.011M13 12.01l.01-.011" stroke="#ffffff" stroke-width="1.5" stroke-linecap="round" stroke-linejoin="round"></path></svg>